<?xml version="1.0" encoding="utf-8"?>
<!-- Generator: Adobe Illustrator 27.7.0, SVG Export Plug-In . SVG Version: 6.00 Build 0)  -->
<svg version="1.1" id="Ebene_1" xmlns="http://www.w3.org/2000/svg" xmlns:xlink="http://www.w3.org/1999/xlink" x="0px" y="0px"
	 viewBox="0 0 108.6 25.4" style="enable-background:new 0 0 108.6 25.4;" xml:space="preserve">
<style type="text/css">
	.st0{fill:#464646;}
	.st1{fill:#F4B6B2;}
	.st2{fill:#AAAAAA;}
</style>
<path class="st0" d="M80.7,18.7c-0.8,0.7-1.7,1.2-2.7,1.2c-0.6,0-1.2-0.1-1.8-0.4c-0.5-0.3-1.1-0.6-1.4-1.1c-0.4-0.4-0.7-1-1-1.5
	c-0.3-0.6-0.4-1.2-0.4-1.9c0-0.6,0.1-1.2,0.4-1.8c0.3-0.5,0.5-1.1,1-1.5c0.4-0.4,0.9-0.8,1.5-1.1c0.5-0.3,1.2-0.4,1.9-0.4
	c0.9,0,1.7,0.2,2.3,0.5s1.2,0.9,1.4,1.5l-1.4,1c-0.3-0.4-0.6-0.8-1.1-1.1c-0.4-0.3-0.9-0.4-1.4-0.4c-0.4,0-0.8,0.1-1.2,0.3
	s-0.6,0.4-0.9,0.7c-0.3,0.3-0.4,0.6-0.5,1c-0.1,0.4-0.2,0.8-0.2,1.2s0.1,0.9,0.2,1.2c0.2,0.4,0.4,0.7,0.6,1c0.3,0.3,0.5,0.5,0.9,0.7
	c0.4,0.2,0.7,0.3,1.2,0.3c0.9,0,1.8-0.4,2.5-1.2v-0.6h-1.9v-1.3h3.5v4.7h-1.4V18.7z"/>
<path class="st0" d="M86.9,19.9c-0.5,0-1.1-0.1-1.5-0.3c-0.4-0.2-0.9-0.4-1.2-0.8c-0.4-0.4-0.5-0.7-0.7-1.2
	c-0.2-0.4-0.3-0.9-0.3-1.3c0-0.5,0.1-1,0.3-1.4c0.2-0.4,0.4-0.8,0.7-1.2c0.4-0.4,0.7-0.6,1.2-0.8c0.4-0.2,1-0.3,1.6-0.3
	c0.5,0,1.1,0.1,1.5,0.3c0.4,0.2,0.8,0.4,1.2,0.8c0.4,0.4,0.5,0.7,0.7,1.2c0.2,0.4,0.3,0.9,0.3,1.3c0,0.1,0,0.3,0,0.4
	c0,0.1,0,0.2,0,0.3h-5.5c0,0.3,0.1,0.5,0.2,0.7c0.1,0.2,0.3,0.4,0.4,0.5s0.4,0.3,0.6,0.4c0.2,0.1,0.4,0.1,0.7,0.1
	c0.4,0,0.7-0.1,1-0.3c0.4-0.2,0.5-0.4,0.6-0.7l1.5,0.4c-0.3,0.5-0.7,1-1.2,1.3C88.4,19.8,87.7,19.9,86.9,19.9z M88.8,15.8
	c-0.1-0.5-0.3-1-0.6-1.2c-0.4-0.4-0.8-0.4-1.2-0.4c-0.3,0-0.4,0-0.7,0.1c-0.2,0.1-0.4,0.2-0.5,0.4c-0.2,0.2-0.3,0.4-0.4,0.5
	c-0.1,0.2-0.1,0.4-0.1,0.7H88.8z"/>
<path class="st0" d="M95,19.9c-0.5,0-1.1-0.1-1.5-0.3c-0.4-0.2-0.9-0.4-1.2-0.8c-0.4-0.4-0.5-0.7-0.7-1.2c-0.2-0.4-0.3-0.9-0.3-1.3
	c0-0.5,0.1-1,0.3-1.4c0.2-0.4,0.4-0.8,0.7-1.2c0.4-0.4,0.7-0.6,1.2-0.8c0.4-0.2,1-0.3,1.6-0.3c0.5,0,1.1,0.1,1.5,0.3
	c0.4,0.2,0.8,0.4,1.2,0.8c0.4,0.4,0.5,0.7,0.7,1.2c0.2,0.4,0.3,0.9,0.3,1.3c0,0.1,0,0.3,0,0.4c0,0.1,0,0.2,0,0.3h-5.4
	c0,0.3,0.1,0.5,0.2,0.7c0.1,0.2,0.3,0.4,0.4,0.5s0.4,0.3,0.6,0.4c0.2,0.1,0.4,0.1,0.7,0.1c0.4,0,0.7-0.1,1-0.3
	c0.4-0.2,0.5-0.4,0.6-0.7l1.5,0.4c-0.3,0.5-0.7,1-1.2,1.3C96.4,19.8,95.8,19.9,95,19.9z M96.7,15.8c-0.1-0.5-0.3-1-0.6-1.2
	c-0.4-0.4-0.8-0.4-1.2-0.4c-0.3,0-0.4,0-0.7,0.1c-0.2,0.1-0.4,0.2-0.5,0.4c-0.2,0.2-0.3,0.4-0.4,0.5c-0.1,0.2-0.2,0.4-0.2,0.7H96.7z
	"/>
<path class="st0" d="M104.5,19.8l-2-3l-1,1v2h-1.8v-9.6h1.8V16l2.8-3.1h1.9l-2.7,2.9l2.8,4H104.5z"/>
<g>
	<path class="st1" d="M27.8,11.1c-0.4-0.4-1.2-0.7-4.8,0.6c-1.3,0.5-3.1,1.2-4.5,2c-0.2-0.5-0.4-0.9-0.4-1.2
		c-1.9-4.7-2.8-4.7-3.3-4.7c-0.4,0-1.3,0-3.3,4.7c-0.1,0.3-0.3,0.6-0.4,1.2c-1.4-0.8-3.2-1.5-4.5-2c-3.6-1.3-4.3-1.1-4.8-0.6
		c-0.4,0.4-0.9,0.9,1,5.7c0.4,1.1,1.9,4.4,3.1,5.7c1,1,2.3,1.5,3.6,1.5c1,0,1.9-0.3,2.7-0.7c0.8,0.4,1.7,0.8,2.7,0.8
		s1.9-0.3,2.7-0.8c0.8,0.5,1.8,0.7,2.7,0.7c1.3,0,2.7-0.5,3.6-1.5c1.2-1.2,2.7-4.7,3.1-5.7C28.8,12,28.1,11.4,27.8,11.1z M7.2,21
		c-1.2-1.2-3.3-6.2-3.7-8.2c1.5,0.4,4.9,1.6,6.9,2.8c-0.4,1.2-0.7,2.3-0.7,3.2c0,1.1,0.4,2.1,1,3C9.4,22.2,8,21.9,7.2,21z
		 M11.6,18.8c0-1.7,2.1-6.7,3.2-8.5c1.1,1.8,3.2,6.8,3.2,8.5c0,1.8-1.4,3.2-3.2,3.2S11.6,20.5,11.6,18.8z M22.4,21
		c-0.9,0.9-2.3,1.2-3.5,0.7c0.6-0.8,1-1.9,1-3c0-0.8-0.4-2-0.7-3.2c2-1.2,5.4-2.5,6.9-2.8C25.7,14.8,23.5,19.9,22.4,21z"/>
	<ellipse class="st1" cx="14.8" cy="4.1" rx="1.6" ry="1.6"/>
	<circle class="st1" cx="21.8" cy="8.6" r="1.6"/>
	<circle class="st1" cx="7.8" cy="8.6" r="1.6"/>
</g>
<g>
	<path class="st2" d="M38.3,8.8c0.7-0.4,1.1-0.6,1.2-0.6c0.4-0.1,0.5-0.1,0.7,0c0.1,0,0.1,0.1,0.1,0.2S40.3,8.6,40,8.8
		c-0.1,0.1-0.3,0.2-0.5,0.4c0.6,0.3,1.2,0.7,1.6,1.4c0.2,0.3,0.3,0.6,0.3,1.1c0,0.6-0.1,1.2-0.4,1.5c-0.4,0.4-0.8,0.8-1.3,1.1
		c0.3,0.4,0.5,0.6,0.6,0.9c0.1,0.3,0.2,0.6,0.2,1c0,0.6-0.2,1.3-0.5,2.1c-0.3,0.6-0.7,1.1-1.3,1.4c-0.6,0.4-1.2,0.5-1.9,0.5
		c-0.4,0-0.9-0.1-1.2-0.4c-0.6-0.4-1-1-1.1-1.5c-0.7,0.9-1.4,1.5-2.1,1.8c-0.4,0.2-0.9,0.3-1.5,0.3c-0.4,0-0.9-0.1-1.2-0.3
		c-0.4-0.2-0.8-0.4-1.1-0.8c-0.4-0.5-0.5-1.1-0.5-1.6c0-0.8,0.3-1.3,0.9-1.8c0.3-0.2,0.4-0.3,0.7-0.3s0.5,0.1,0.7,0.3
		c0.2,0.2,0.3,0.4,0.3,0.7c0,0.4-0.1,0.6-0.4,0.8c-0.4,0.4-0.7,0.6-0.7,0.9c0,0.1,0,0.3,0.1,0.4c0.2,0.2,0.4,0.4,0.7,0.4
		c0.3,0,0.5-0.1,0.8-0.3c0.5-0.3,1-0.7,1.4-1.3c0.3-0.4,0.6-1.1,1.2-2c0.6-1.2,1.2-2.2,1.8-3.1c0.7-1.1,1.3-1.9,2-2.7
		c-0.3-0.1-0.5-0.1-0.8-0.1c-0.6,0-1.2,0.2-1.8,0.4c-0.9,0.4-1.6,0.9-1.9,1.3c-0.4,0.4-0.6,1-0.7,1.6c0,0.2,0,0.3,0,0.4
		c0,0.6,0.3,1,0.8,1.2c0.3,0.1,0.4,0.3,0.4,0.4c0,0.3-0.1,0.4-0.4,0.5c-0.1,0-0.2,0-0.3,0c-0.4,0-0.7-0.2-1-0.5
		c-0.3-0.4-0.4-0.9-0.4-1.4c0-0.3,0.1-0.8,0.3-1.5c0.2-0.7,0.7-1.3,1.6-2c1.1-0.9,2.3-1.3,3.5-1.3C37.3,8.6,37.8,8.7,38.3,8.8z
		 M38.3,9.8c-0.2,0.2-0.4,0.4-0.6,0.7c-0.3,0.4-0.6,1.1-0.9,2c-0.4,1.3-0.8,2.3-1.1,2.8c0.4-0.2,0.6-0.3,0.8-0.4c0.1,0,0.2,0,0.2,0
		c0.2,0,0.3,0.1,0.3,0.3c0,0.2-0.2,0.4-0.4,0.4c-0.4,0.1-0.8,0.4-1.2,0.8c-0.3,0.3-0.4,0.6-0.4,1.1c0,0.3,0.1,0.4,0.2,0.5
		c0.3,0.3,0.6,0.4,0.9,0.4c0.4,0,0.7-0.2,1.1-0.6c0.2-0.2,0.4-0.5,0.5-1c0.3-0.5,0.4-1.1,0.4-1.5c0-0.1,0-0.2,0-0.4
		c-0.1-0.4-0.2-0.8-0.4-0.9c0,0-0.2-0.1-0.6-0.1c-0.3,0-0.4-0.2-0.4-0.4c0-0.3,0.2-0.5,0.5-0.5c0.3,0,0.6,0,0.9,0
		c0.6-0.1,1-0.6,1.2-1.5c0-0.1,0-0.3,0-0.4c0-0.5-0.2-1-0.6-1.2C38.7,10,38.5,9.9,38.3,9.8z"/>
	<path class="st2" d="M43.1,18c-0.1,0.5,0.2,0.8,0.5,0.8c0.3,0,0.6-0.1,1-0.4c0.4-0.3,0.6-0.4,0.9-0.8c0.4-0.4,0.6-0.6,0.7-0.7
		c0.1-0.1,0.2-0.1,0.3-0.1s0.2,0,0.3,0.1c0.1,0,0.1,0.1,0.1,0.2c0,0.2-0.4,0.6-1,1.2c-1.2,1.2-2.2,1.7-3.2,1.7
		c-0.3,0-0.5-0.1-0.8-0.2c-0.3-0.2-0.5-0.4-0.7-0.9C41,18.6,41,18.3,41,18.2c0-0.3,0.1-0.4,0.1-0.4c0.1-0.2,0.2-0.3,0.3-0.4
		c-0.3,0.3-0.4,0.4-0.5,0.4s-0.2,0-0.3-0.1s-0.1-0.2-0.1-0.3c0-0.1,0.1-0.3,0.3-0.4c0.1-0.1,0.4-0.4,0.9-1.1
		c0.5-0.6,1.1-1.2,1.5-1.6c0.7-0.6,1.4-0.9,1.9-0.9c0.4,0,0.7,0.1,0.9,0.4c0.3,0.3,0.4,0.5,0.4,0.9c0,0.4-0.3,1-0.8,1.6
		C45,17.1,44.1,17.7,43.1,18z M44.1,16.6c0.2,0,0.4-0.3,0.9-0.8c0.3-0.4,0.4-0.6,0.4-1c0-0.2-0.1-0.3-0.2-0.3
		c-0.2,0-0.4,0.3-0.9,0.9c-0.3,0.4-0.4,0.7-0.4,0.9C43.9,16.5,43.9,16.6,44.1,16.6z"/>
	<path class="st2" d="M52,13.7c0.2-0.4,0.3-0.6,0.3-0.6c0.2-0.4,0.3-0.5,0.5-0.5c0.2,0,0.4,0.1,0.7,0.4c0.3,0.3,0.4,0.5,0.4,0.8
		c0,0.2-0.1,0.4-0.4,0.9c-0.3,0.4-0.6,1.2-1.1,2.1c-0.2,0.4-0.3,0.6-0.3,0.9c0,0.2,0,0.3,0.1,0.3s0.3-0.1,0.6-0.4
		c0.3-0.3,0.5-0.5,0.7-0.7c0.1-0.2,0.2-0.2,0.2-0.2c0.1,0,0.1,0.1,0.2,0.2C54,16.9,54,17,54,17.1c0,0.1-0.1,0.2-0.2,0.4
		c-0.1,0.1-0.3,0.3-0.4,0.4c-0.2,0.2-0.5,0.5-1.1,1c-0.5,0.4-0.8,0.7-1,0.8c-0.3,0.2-0.6,0.3-0.9,0.3s-0.4-0.1-0.6-0.2
		s-0.3-0.4-0.3-0.6c0-0.2,0-0.3,0.1-0.4c-0.5,0.4-1,0.8-1.2,1c-0.4,0.2-0.7,0.3-1,0.3c-0.4,0-0.6-0.1-0.8-0.4s-0.4-0.5-0.4-0.9
		s0.1-0.7,0.3-1.1c-0.2,0-0.4,0-0.4-0.1c-0.1-0.1-0.1-0.2-0.1-0.4c0-0.1,0.1-0.2,0.3-0.4c0.2-0.2,0.4-0.3,0.4-0.4
		c0.3-0.2,0.5-0.6,1.1-1.2c0.3-0.4,0.5-0.7,0.7-1c0.4-0.4,0.9-0.6,1.4-0.8c0.3-0.1,0.5-0.1,0.8-0.1C51.2,13.4,51.6,13.5,52,13.7z
		 M49,18.1c0.2,0,0.4-0.2,0.8-0.6c0.3-0.3,0.5-0.6,0.7-0.9c0.4-0.7,0.6-1.2,0.6-1.6c0-0.3-0.1-0.4-0.3-0.4c-0.3,0-0.7,0.5-1.4,1.5
		c-0.5,0.8-0.8,1.3-0.8,1.6C48.8,18,48.9,18.1,49,18.1z"/>
	<path class="st2" d="M54.5,19.9c-0.4,0-0.6-0.3-0.6-0.8c0-0.4,0.2-1,0.4-1.6c0.3-0.5,0.6-1.2,1.1-1.9c-1,1.2-1.6,1.9-1.7,1.9
		c-0.2,0-0.3-0.1-0.3-0.3c0-0.2,0.1-0.4,0.4-0.6c0.7-1,1.6-2,2.7-3.3c0.1-0.1,0.2-0.2,0.4-0.2s0.4,0.3,0.7,0.8
		c0.2,0.3,0.3,0.4,0.3,0.6c0,0.1,0,0.3-0.1,0.4c-0.2,0.4-0.4,1-0.8,1.7c-0.1,0.2-0.1,0.3-0.1,0.4c0,0.2,0.1,0.2,0.2,0.2
		c0.2-0.1,0.4-0.2,0.6-0.4c0.5-0.5,1.2-1.3,1.9-2.5c0.1-0.2,0.4-0.4,0.8-0.5c0.4-0.2,0.7-0.3,0.9-0.3c0.3,0,0.4,0.2,0.4,0.4
		c0,0.2-0.1,0.5-0.4,1c-0.4,0.7-0.7,1.5-1.2,2.5c-0.2,0.4-0.1,0.6,0.2,0.6c0.1,0,0.3-0.1,0.4-0.3c0.2-0.2,0.4-0.4,0.6-0.7
		c0.1-0.1,0.3-0.2,0.4-0.2c0.2,0,0.3,0.1,0.3,0.3c0,0.1-0.1,0.3-0.3,0.4c-0.9,1.2-1.8,1.9-2.7,2.4c-0.2,0.1-0.4,0.2-0.6,0.2
		c-0.3,0-0.5-0.1-0.7-0.4c-0.2-0.2-0.3-0.4-0.3-0.7c0-0.2,0-0.3,0.1-0.4c0.2-0.4,0.4-1,0.8-1.8C56.4,18.9,55.1,19.9,54.5,19.9z"/>
	<path class="st2" d="M63.5,14.3c-0.3,0-0.4-0.1-0.4-0.4c0-0.1,0-0.2,0.1-0.3c0.1-0.2,0.4-0.3,1.1-0.3c0.1-0.2,0.2-0.3,0.3-0.4
		c0.1-0.1,0.4-0.7,1-1.8c0.1-0.2,0.2-0.3,0.4-0.3c0.1,0,0.3,0.1,0.4,0.3c0.1,0.2,0.3,0.3,0.4,0.4c0.1,0.2,0.2,0.4,0.2,0.6
		s-0.1,0.4-0.2,0.8c0,0-0.1,0.1-0.2,0.3c0.8,0,1.2,0.1,1.2,0.3c0,0.1,0,0.1-0.1,0.2l-0.3,0.4c-0.1,0.1-0.2,0.1-0.4,0.1
		c-0.1,0-0.2,0-0.4,0s-0.4,0-0.4,0c-0.4,0.6-0.5,1-0.6,1.2c0,0,0.1-0.1,0.2-0.4c-0.8,1.5-1.2,2.3-1.2,2.4c-0.1,0.4-0.1,0.5,0,0.6
		c0.1,0,0.2,0,0.3,0c0.2,0,0.3-0.1,0.4-0.2c0.4-0.3,0.7-0.6,1.2-1.1c0.1-0.1,0.3-0.2,0.4-0.2c0.2,0,0.3,0.1,0.3,0.3
		c0,0.1-0.1,0.3-0.3,0.4c-0.4,0.4-0.9,1-1.7,1.5c-0.9,0.6-1.5,1-1.9,1c-0.4,0-0.6-0.2-0.9-0.4c-0.2-0.3-0.3-0.5-0.3-0.8
		c0.1-0.6,0.5-1.7,1.2-3c-0.4,0.4-0.8,1.1-1.3,1.7c-0.2,0.2-0.4,0.2-0.5,0.1s-0.2-0.3,0-0.4C61.7,16.4,62.5,15.4,63.5,14.3z"/>
	<path class="st2" d="M68.9,19.5c0.1,0,0.3-0.1,0.4-0.1c0.4-0.5,0.7-1.3,1.1-2.2c0.2-0.6,0.3-1.2,0.3-1.6c0-0.3,0-0.5-0.1-0.8
		c-0.1-0.3-0.1-0.4-0.1-0.5c0-0.4,0.1-0.7,0.3-1.1c0.2-0.3,0.4-0.4,0.6-0.4s0.5,0.2,0.7,0.4c0.2,0.2,0.2,0.4,0.2,0.8
		c0,0.6-0.2,1.2-0.4,1.9c-0.4,1-1,2-1.6,2.9c0.8-0.5,1.5-1.2,1.9-1.9c0.1-0.2,0.3-0.3,0.4-0.3s0.3,0.1,0.3,0.2s-0.1,0.3-0.2,0.4
		c-0.4,0.5-1,1.2-1.9,1.8c-0.4,0.4-0.9,0.5-1.2,0.7c-0.4,0.6-0.9,1.2-1.3,1.6c-1.4,1.4-2.5,2.3-3.4,2.5c-0.2,0.1-0.4,0.1-0.6,0.1
		c-0.6,0-1-0.3-1.2-0.8c-0.1-0.2-0.1-0.4-0.1-0.5c0-0.8,0.6-1.5,1.8-2c0.6-0.4,1.5-0.6,2.4-0.9c0.1-0.4,0.3-1.2,0.4-2.2
		c0.1-0.3,0.1-0.5,0.1-0.7c0-0.2-0.1-0.4-0.2-0.5l-0.1-0.1c-0.1,0-0.4,0.3-0.9,0.9c-0.2,0.2-0.3,0.3-0.4,0.3c-0.1,0-0.2-0.1-0.2-0.3
		c0-0.2,0.1-0.3,0.2-0.4c0.3-0.3,0.6-0.8,1.2-1.5c0.4-0.4,0.6-0.9,1-1.3c0.3-0.4,0.5-0.4,0.7-0.4c0.4,0,0.6,0.4,0.6,1.2
		c0,0.4-0.1,1-0.2,1.6C69.3,17.5,69.1,18.5,68.9,19.5z M66.9,20.6c-1.6,0.4-2.6,1-2.9,1.8c-0.1,0.2-0.1,0.4-0.1,0.5
		c0,0.4,0.3,0.6,0.7,0.6c0.9-0.1,1.6-1,2.2-2.5C66.8,20.9,66.8,20.7,66.9,20.6z"/>
</g>
</svg>
