<?xml version="1.0" encoding="UTF-8"?><svg id="Ebene_2" xmlns="http://www.w3.org/2000/svg" viewBox="0 0 15.84 14.91"><defs><style>.cls-1{fill:#f4b6b2;}</style></defs><g id="Ebene_1-2"><path class="cls-1" d="m15.53,8.46c.09-.1.16-.2.21-.31.06-.14.11-.29.11-.45,0-.34-.16-.62-.4-.82L9.33.38c-.43-.46-1.19-.51-1.7-.13-.51.39-.57,1.07-.14,1.53l4.55,4.83H1.08c-.6,0-1.08.49-1.08,1.08s.49,1.08,1.08,1.08h10.7l-4.77,4.28c-.47.42-.47,1.11,0,1.53.47.42,1.24.42,1.71,0l6.74-6.05s.04-.06.06-.08c0,0,0,0,0,0Z"/></g></svg>